<svg xmlns="http://www.w3.org/2000/svg" viewBox="0 0 323 312" width="24" height="24" fill="currentcolor"><path d="m288.1 193-18.92 45.13-9.54 27.87h-2.39l-9.76-27.87L228.34 193h-35.98v117h24l.13-61.96-.91-19.04h2.56l6.87 18 23.92 56h18.6l24.92-56 6.02-18h2.3l-1.41 19.04L300 310h23.36V193H288.1zm-163.74 45v-2.74c0-10.1-2.52-18.8-7.55-26.1-5.03-7.3-12.06-12.9-21.09-16.79-9.03-3.89-19.55-5.84-31.55-5.84-12.97 0-24.27 2.59-33.91 7.76-9.64 5.17-17.09 12.48-22.36 21.91s-7.91 20.54-7.91 33.31 2.64 23.88 7.91 33.31c5.27 9.43 12.73 16.73 22.36 21.91 9.64 5.17 20.94 7.76 33.91 7.76 12 0 22.51-1.94 31.55-5.84 9.03-3.89 16.06-9.52 21.09-16.89 5.03-7.36 7.55-16.03 7.55-26.01v-2.74h-26v2.74c0 8.64-2.73 15.15-8.18 19.53-5.45 4.38-14.06 6.57-25.82 6.57-9.09 0-16.55-1.37-22.36-4.11-5.82-2.74-10.12-7.09-12.91-13.05-2.79-5.96-4.18-13.69-4.18-23.18s1.39-17.37 4.18-23.27c2.79-5.9 7.09-10.22 12.91-12.96s13.27-4.11 22.36-4.11c11.76 0 20.36 2.19 25.82 6.57 5.45 4.38 8.18 10.89 8.18 19.53v2.74h26ZM225.53 0h-26.17v122h117v-21h-90.83M116.71 28.22c-5.1-9.1-12.35-16.08-21.76-20.94C85.54 2.43 74.41 0 61.54 0H4.36v122h57.18c12.87 0 24-2.43 33.41-7.28 9.41-4.85 16.66-11.84 21.76-20.94 5.1-9.1 7.65-20.03 7.65-32.78s-2.55-23.67-7.65-32.78Zm-21.5 56.7c-2.62 5.84-6.73 9.99-12.33 12.42-5.6 2.44-12.85 3.65-21.73 3.65H27.36V21h33.79c8.89 0 16.13 1.22 21.73 3.65 5.6 2.44 9.71 6.55 12.33 12.33 2.62 5.78 3.93 13.79 3.93 24.02s-1.31 18.08-3.93 23.93Z"/></svg>